<svg width="136" height="48" viewBox="0 0 136 48" fill="none" xmlns="http://www.w3.org/2000/svg">
<path d="M42.1297 24.5605L25.2607 44.9842H3.58252L20.4629 24.5605L3.58252 4.13672H25.2481L42.1297 24.5605Z" fill="url(#paint0_linear_1962_4018)"/>
<path opacity="0.3" d="M48.1276 24.5603L37.3571 37.5996H23.5166L34.2946 24.5603L23.5166 11.521H37.3496L48.1276 24.5603Z" fill="url(#paint1_linear_1962_4018)"/>
<path d="M43.5175 24.5605L30.5773 40.2274H22.207L35.156 24.5605L22.207 8.89355H30.5685L43.5175 24.5605Z" fill="url(#paint2_linear_1962_4018)"/>
<path d="M49.3918 15.2303L48.1326 12.9089L57.7055 7.30266L58.971 9.6215L49.3918 15.2303ZM50.7254 20.1485V3.94482H54.2513V17.1404H61.4354V20.1511L50.7254 20.1485Z" fill="#0F172A"/>
<path d="M61.4329 20.1485L68.7555 3.94482H71.6694L79.0814 20.1485H75.5063L73.5872 15.6441L74.9649 16.6318H65.499L66.8993 15.6441L64.9777 20.1485H61.4329ZM70.1986 7.71518L67.2834 14.7473L66.6739 13.8736H73.7925L73.2724 14.7473L70.288 7.71518H70.1986Z" fill="#0F172A"/>
<path d="M82.3555 20.1485V6.86451H77.292V3.94482H90.9361V6.86451H85.8814V20.1485H82.3555Z" fill="#0F172A"/>
<path d="M97.7185 20.1485L92.0657 3.94482H95.7037L99.7472 16.4486H98.7763L103.184 3.94482H105.759L109.802 16.4486H108.899L113.192 3.94482H116.604L110.907 20.1485H108.037L104.133 8.63375H104.644L100.601 20.1485H97.7185Z" fill="#0F172A"/>
<path d="M122.608 20.1485V12.4489L123.332 14.4988L116.355 3.94482H120.422L124.799 10.8898H124.077L128.459 3.94739H132.39L125.432 14.4975L126.132 12.4477V20.1472L122.608 20.1485Z" fill="#0F172A"/>
<path d="M56.4854 44.4217C55.2705 44.4322 54.0601 44.271 52.8889 43.9426C51.872 43.6666 50.909 43.2155 50.0417 42.6089L51.0806 39.8045C51.5925 40.1574 52.1375 40.4578 52.7076 40.7013C53.2904 40.9501 53.8962 41.1389 54.5159 41.265C55.1702 41.3975 55.8359 41.4627 56.503 41.4598C57.5876 41.4598 58.3596 41.2915 58.8188 40.955C59.2784 40.6168 59.5076 40.1863 59.5076 39.6675C59.5076 39.1917 59.3531 38.8279 59.0442 38.5759C58.7353 38.324 58.1761 38.1058 57.3669 37.9213L54.701 37.3691C53.2403 37.0625 52.1489 36.5415 51.4269 35.8061C50.705 35.0708 50.3435 34.0886 50.3427 32.8596C50.3206 31.8901 50.6058 30.9392 51.1562 30.1474C51.6977 29.3787 52.4616 28.7809 53.448 28.3538C54.4345 27.9268 55.5905 27.7133 56.916 27.7133C57.9889 27.704 59.0564 27.867 60.0793 28.1962C60.9744 28.4699 61.7994 28.9405 62.4958 29.5747L61.4519 32.1946C60.8361 31.6911 60.1355 31.3056 59.3842 31.057C58.5624 30.7931 57.7047 30.6634 56.843 30.6727C55.865 30.6727 55.1157 30.849 54.5952 31.2018C54.3522 31.3527 54.1524 31.5658 54.0156 31.8198C53.8789 32.0738 53.8099 32.3599 53.8157 32.6494C53.8086 32.8596 53.8475 33.0688 53.9296 33.2618C54.0117 33.4548 54.135 33.6268 54.2905 33.7653C54.6061 34.048 55.1632 34.2735 55.9615 34.4417L58.5871 34.9747C60.078 35.2822 61.1849 35.7946 61.9077 36.512C62.6306 37.2295 62.992 38.1873 62.992 39.3856C63.0115 40.3315 62.7301 41.2585 62.1898 42.0286C61.6551 42.7793 60.902 43.3652 59.9307 43.7863C58.9594 44.2073 57.811 44.4192 56.4854 44.4217Z" fill="#0F172A"/>
<path d="M68.933 44.1695V30.8855H63.8721V27.9658H77.5174V30.8855H72.4564V44.1695H68.933Z" fill="#0F172A"/>
<path d="M75.7783 44.1695L83.0971 27.9658H86.0073L93.418 44.1695H89.8518L87.9314 39.6651L89.3166 40.6528H79.8445L81.2448 39.6651L79.3244 44.1695H75.7783ZM84.544 31.7426L81.6288 38.7747L81.0194 37.901H88.1354L87.6154 38.7747L84.6334 31.7426H84.544Z" fill="#0F172A"/>
<path d="M94.7996 44.1695V27.9658H102.028C103.821 27.9658 105.206 28.3988 106.183 29.2649C107.16 30.1309 107.65 31.3373 107.652 32.8841C107.652 33.8962 107.43 34.766 106.985 35.4937C106.529 36.2314 105.869 36.8153 105.088 37.172C104.267 37.5615 103.284 37.7566 102.14 37.7575L102.411 37.245H103.337C103.953 37.2357 104.557 37.4205 105.065 37.7741C105.607 38.1685 106.041 38.6978 106.324 39.3115L108.697 44.1606H104.807L102.344 38.9438C102.273 38.7432 102.161 38.5604 102.015 38.4077C101.869 38.255 101.693 38.1359 101.498 38.0585C101.073 37.9062 100.625 37.832 100.175 37.8395H98.323V44.1606L94.7996 44.1695ZM98.3255 35.2759H101.421C102.338 35.2759 103.038 35.0842 103.521 34.7007C104.004 34.3172 104.245 33.7501 104.245 32.9994C104.245 32.2486 104.004 31.6858 103.521 31.3108C103.038 30.9359 102.337 30.748 101.418 30.7471H98.323L98.3255 35.2759Z" fill="#0F172A"/>
<path d="M114.025 44.1695V30.8855H108.964V27.9658H122.608V30.8855H117.548V44.1695H114.025Z" fill="#0F172A"/>
<defs>
<linearGradient id="paint0_linear_1962_4018" x1="34.7517" y1="24.5605" x2="-54.8433" y2="24.5605" gradientUnits="userSpaceOnUse">
<stop stop-color="#3D1465"/>
<stop offset="1" stop-color="#854CFA"/>
</linearGradient>
<linearGradient id="paint1_linear_1962_4018" x1="13.775" y1="24.5603" x2="42.5377" y2="24.5603" gradientUnits="userSpaceOnUse">
<stop stop-color="#3D1465"/>
<stop offset="1" stop-color="#854CFA"/>
</linearGradient>
<linearGradient id="paint2_linear_1962_4018" x1="-0.930594" y1="24.5605" x2="36.3485" y2="24.5605" gradientUnits="userSpaceOnUse">
<stop stop-color="#3D1465"/>
<stop offset="1" stop-color="#854CFA"/>
</linearGradient>
</defs>
</svg>
