<svg xmlns="http://www.w3.org/2000/svg" xmlns:xlink="http://www.w3.org/1999/xlink" version="1.1" x="0px" y="0px" viewBox="0 0 100 100" enable-background="new 0 0 100 100" xml:space="preserve" style="max-width:100%" height="100%"><path d="M69.2,75.7v9.6H39.7h-8.9H1.3v-9.6c0-2,0.9-3.9,2.4-5.2c6.7-5.5,13.8-9.6,17.6-11.6c0.4,1,4.5,10.5,7,14  c0,0,2.5-8.8,6.6-6.4c0,0-8.3-6.4-11-9.6v-6.3c-1-1.8-1.7-3.6-1.9-5.3c-0.7-0.1-1.7-1.1-2.8-4.8c-1.3-4.7-0.1-5.7,1.1-5.7  c-0.1-0.4-0.2-0.8-0.3-1.2h0c-0.5-2.4-0.6-4.6,0-6.7c0.7-2.8,2.2-5.1,3.9-6.8c1.1-1.1,2.3-2.2,3.6-3c1.1-0.7,2.2-1.4,3.5-1.8l0,0  c1-0.3,2.1-0.6,3.2-0.6c3.5-0.3,6.1,0.6,8,1.7c2.8,1.6,3.9,3.6,3.9,3.6s6.4,0.5,4.3,13.5c-0.1,0.4-0.2,0.8-0.3,1.2  c1.2,0,2.5,1,1.1,5.7c-1,3.7-2,4.7-2.8,4.8c-0.3,1.7-0.9,3.5-1.9,5.3v6.3c-2.7,3.2-11,9.6-11,9.6c4.1-2.3,6.6,6.4,6.6,6.4  c2.5-3.5,6.6-13,7-14c3.7,2,10.9,6.1,17.6,11.6C68.3,71.8,69.2,73.7,69.2,75.7z M98.7,30.1c0,8-6.4,14.4-14.4,14.4h-9.8l-6.6,6.6  c-0.4,0.4-1.2,0.1-1.2-0.5v-6.9c-5.7-1.9-9.9-7.3-9.9-13.7c0-8,6.4-14.4,14.4-14.4h13.1C92.2,15.7,98.7,22.2,98.7,30.1z M79.3,36.8  c0-0.5-0.4-0.9-0.9-0.9h-2.3c-0.5,0-0.9,0.4-0.9,0.9v1.5c0,0.5,0.4,0.9,0.9,0.9h2.3c0.5,0,0.9-0.4,0.9-0.9V36.8z M83.9,26.5  c0-1.7-0.6-3-1.7-4c-1.1-1-2.7-1.5-4.6-1.5c-1.8,0-3.3,0.4-4.4,1.3c-1,0.8-1.5,1.8-1.6,3.3c0,0.3,0.2,0.6,0.6,0.6l2.7,0  c0.4,0,0.8-0.3,0.9-0.7c0.1-0.3,0.3-0.6,0.5-0.8c0.4-0.3,0.8-0.5,1.4-0.5c0.7,0,1.2,0.2,1.6,0.6c0.4,0.4,0.6,1,0.6,1.7  c0,0.7-0.2,1.3-0.5,1.8s-0.8,0.9-1.3,1.3c-1.1,0.8-1.8,1.4-2.2,2c-0.3,0.5-0.5,1.1-0.6,1.9c0,0.4,0.3,0.7,0.6,0.7h2.9  c0.3,0,0.6-0.2,0.6-0.6c0-0.4,0.1-0.8,0.3-1.1c0.2-0.4,0.5-0.8,1.1-1.1c0.9-0.5,1.7-1.2,2.3-2C83.6,28.4,83.9,27.5,83.9,26.5z" style="" fill="currentColor"></path></svg>