<?xml version="1.0" encoding="utf-8"?><svg xmlns="http://www.w3.org/2000/svg" viewBox="0 0 512 512" style="max-width:100%" width="512" height="512"><path d="M256 0C114.625 0 0 114.625 0 256s114.625 256 256 256 256-114.625 256-256S397.375 0 256 0zm135.188 373.531l-20.5 20.5c-3.656 3.656-14.375 5.938-14.719 5.938-64.844.563-127.281-24.906-173.156-70.781-46-46.031-71.5-108.688-70.813-173.75 0-.031 2.344-10.438 6-14.063l20.5-20.5c7.5-7.531 21.906-10.938 32-7.563l4.313 1.438c10.063 3.375 20.625 14.5 23.406 24.75l10.313 37.844c2.781 10.281-.969 24.906-8.469 32.406l-13.688 13.688c13.438 49.75 52.469 88.781 102.219 102.25L302.281 312c7.531-7.531 22.156-11.281 32.406-8.5l37.844 10.344c10.25 2.813 21.375 13.313 24.75 23.375l1.438 4.375c3.344 10.062-.031 24.469-7.531 31.937z" fill="currentColor"/></svg>