<?xml version="1.0" encoding="utf-8"?><svg xmlns="http://www.w3.org/2000/svg" viewBox="0 0 100 100" style="max-width:100%" width="100" height="100"><path d="M69.2 75.7v9.6H1.3v-9.6c0-2 .9-3.9 2.4-5.2 6.7-5.5 13.8-9.6 17.6-11.6.4 1 4.5 10.5 7 14 0 0 2.5-8.8 6.6-6.4 0 0-8.3-6.4-11-9.6v-6.3c-1-1.8-1.7-3.6-1.9-5.3-.7-.1-1.7-1.1-2.8-4.8-1.3-4.7-.1-5.7 1.1-5.7l-.3-1.2c-.5-2.4-.6-4.6 0-6.7.7-2.8 2.2-5.1 3.9-6.8 1.1-1.1 2.3-2.2 3.6-3 1.1-.7 2.2-1.4 3.5-1.8 1-.3 2.1-.6 3.2-.6 3.5-.3 6.1.6 8 1.7C45 18 46.1 20 46.1 20s6.4.5 4.3 13.5l-.3 1.2c1.2 0 2.5 1 1.1 5.7-1 3.7-2 4.7-2.8 4.8-.3 1.7-.9 3.5-1.9 5.3v6.3c-2.7 3.2-11 9.6-11 9.6 4.1-2.3 6.6 6.4 6.6 6.4 2.5-3.5 6.6-13 7-14 3.7 2 10.9 6.1 17.6 11.6 1.6 1.4 2.5 3.3 2.5 5.3zm29.5-45.6c0 8-6.4 14.4-14.4 14.4h-9.8l-6.6 6.6c-.4.4-1.2.1-1.2-.5v-6.9c-5.7-1.9-9.9-7.3-9.9-13.7 0-8 6.4-14.4 14.4-14.4h13.1c7.9.1 14.4 6.6 14.4 14.5zm-19.4 6.7c0-.5-.4-.9-.9-.9h-2.3c-.5 0-.9.4-.9.9v1.5c0 .5.4.9.9.9h2.3c.5 0 .9-.4.9-.9v-1.5zm4.6-10.3c0-1.7-.6-3-1.7-4S79.5 21 77.6 21c-1.8 0-3.3.4-4.4 1.3-1 .8-1.5 1.8-1.6 3.3 0 .3.2.6.6.6h2.7c.4 0 .8-.3.9-.7.1-.3.3-.6.5-.8.4-.3.8-.5 1.4-.5.7 0 1.2.2 1.6.6.4.4.6 1 .6 1.7s-.2 1.3-.5 1.8-.8.9-1.3 1.3c-1.1.8-1.8 1.4-2.2 2-.3.5-.5 1.1-.6 1.9 0 .4.3.7.6.7h2.9c.3 0 .6-.2.6-.6 0-.4.1-.8.3-1.1.2-.4.5-.8 1.1-1.1.9-.5 1.7-1.2 2.3-2 .5-1 .8-1.9.8-2.9z" fill="currentColor"/></svg>