<?xml version="1.0" encoding="utf-8"?><svg viewBox="0 0 512 512" xmlns="http://www.w3.org/2000/svg" xmlns:xlink="http://www.w3.org/1999/xlink"><style>:root>svg{display:none}:root>svg:target{display:block}</style><svg viewBox="0 0 24 24" id="ic_arrow-left" xmlns="http://www.w3.org/2000/svg"><path fill-rule="evenodd" clip-rule="evenodd" d="M9.854 5.146a.5.5 0 010 .708L3.707 12H22.5a.5.5 0 010 1H3.707l6.147 6.146a.5.5 0 01-.708.708l-7-7a.5.5 0 010-.708l7-7a.5.5 0 01.708 0z"/></svg><svg viewBox="0 0 24 24" id="ic_arrow-right" xmlns="http://www.w3.org/2000/svg"><path fill-rule="evenodd" clip-rule="evenodd" d="M15.146 5.146a.5.5 0 01.708 0l7 7a.5.5 0 010 .708l-7 7a.5.5 0 01-.708-.708L21.293 13H2.5a.5.5 0 010-1h18.793l-6.147-6.146a.5.5 0 010-.708z"/></svg><svg viewBox="0 0 100 100" style="max-width:100%" id="ic_cursor" xmlns="http://www.w3.org/2000/svg"><g fill="currentColor"><path d="M50.318 35.537l.331-.806-4.623-1.893-.119.293-19.961-10.893 21.435 70.408L58.76 62.531l31.791-5.039zM28.713 7.354h3.565v4.993h-3.565zM46.548 26.615h4.993v3.568h-4.993zM28.713 44.451h3.565v4.992h-3.565zM9.45 26.615h4.995v3.568H9.45zM44.115 12.255l2.523 2.52-3.53 3.535-2.523-2.521zM16.876 44.54l-2.524-2.523 3.53-3.53 2.524 2.523zM17.884 18.31l-3.531-3.53 2.523-2.524 3.53 3.532zM36.828 8.251l3.299 1.353-1.895 4.62-3.298-1.352zM24.162 48.551l-3.3-1.353 1.894-4.62 3.3 1.353zM11.698 18.764l4.62 1.894-1.352 3.301-4.621-1.893zM50.603 21.92l-4.607 1.93-1.377-3.291 4.607-1.929zM10.393 34.875L15 32.95l1.377 3.293-4.606 1.926zM24.019 8.294l1.926 4.608-3.292 1.376-1.926-4.608z"/></g></svg><svg viewBox="0 0 512 512" style="max-width:100%" id="ic_phone" xmlns="http://www.w3.org/2000/svg"><path d="M256 0C114.625 0 0 114.625 0 256s114.625 256 256 256 256-114.625 256-256S397.375 0 256 0zm135.188 373.531l-20.5 20.5c-3.656 3.656-14.375 5.938-14.719 5.938-64.844.563-127.281-24.906-173.156-70.781-46-46.031-71.5-108.688-70.813-173.75 0-.031 2.344-10.438 6-14.063l20.5-20.5c7.5-7.531 21.906-10.938 32-7.563l4.313 1.438c10.063 3.375 20.625 14.5 23.406 24.75l10.313 37.844c2.781 10.281-.969 24.906-8.469 32.406l-13.688 13.688c13.438 49.75 52.469 88.781 102.219 102.25L302.281 312c7.531-7.531 22.156-11.281 32.406-8.5l37.844 10.344c10.25 2.813 21.375 13.313 24.75 23.375l1.438 4.375c3.344 10.062-.031 24.469-7.531 31.937z" fill="currentColor"/></svg><svg fill="none" viewBox="0 0 60 68" id="ic_pin" xmlns="http://www.w3.org/2000/svg"><g clip-path="url(#eclip0_507_5633)"><g filter="url(#efilter0_f_507_5633)"><path d="M30.51 56.523a.5.5 0 01-.5.477c-.29 0-.51-.21-.52-.477-.145-3.168-1.756-5.217-4.832-6.147C14.53 47.968 7 38.863 7 28 7 15.297 17.297 5 30 5s23 10.297 23 23c0 10.863-7.53 19.968-17.658 22.376-3.076.93-4.687 2.98-4.83 6.147h-.002z" fill="red"/></g><path d="M30.51 56.523a.5.5 0 01-.5.477c-.29 0-.51-.21-.52-.477-.145-3.168-1.756-5.217-4.832-6.147C14.53 47.968 7 38.863 7 28 7 15.297 17.297 5 30 5s23 10.297 23 23c0 10.863-7.53 19.968-17.658 22.376-3.076.93-4.687 2.98-4.83 6.147h-.002z" fill="red"/><path d="M30 68c-2.21 0-4-1.79-4-4s1.79-4 4-4 4 1.79 4 4-1.79 4-4 4z" fill="#fff"/><path d="M30 66a2 2 0 10.09-3.998A2 2 0 0030 66z" fill="#000"/><path fill-rule="evenodd" clip-rule="evenodd" d="M30 34.2V39h11.4a.6.6 0 00.6-.6V24.6a.6.6 0 00-.6-.6h-4.954l-.158 2H40v1h-3.79l-.159 2H40v1h-4.028l-.373 4.715a.303.303 0 01-.323.284.306.306 0 01-.276-.309V18.4a.4.4 0 00-.4-.4H34v-.6a.4.4 0 00-.4-.4H23.4a.4.4 0 00-.4.4v.6h-.6a.4.4 0 00-.4.4v20a.6.6 0 00.6.6H27v-4.8c0-.11.09-.2.2-.2h2.6c.11 0 .2.09.2.2zM25.5 31v-6h2v6h-2zm4-6v6h2v-6h-2zm-4-2v-3h2v3h-2zm4-3v3h2v-3h-2zM37 33v-1h3v1h-3z" fill="#fff"/><path d="M36.525 23l.08-1h2.994c.22 0 .4.18.4.4v.6h-3.474z" fill="#fff"/></g><defs><clipPath id="eclip0_507_5633"><path fill="#fff" d="M0 0h60v68H0z"/></clipPath><filter id="efilter0_f_507_5633" x="1" y="-1" width="58" height="64" filterUnits="userSpaceOnUse" color-interpolation-filters="sRGB"><feFlood flood-opacity="0" result="BackgroundImageFix"/><feBlend in="SourceGraphic" in2="BackgroundImageFix" result="shape"/><feGaussianBlur stdDeviation="3" result="effect1_foregroundBlur_507_5633"/></filter></defs></svg><svg fill="none" viewBox="0 0 32 32" id="ic_play" xmlns="http://www.w3.org/2000/svg"><path d="M10 9.608c0-1.57 1.728-2.528 3.06-1.696l10.226 6.392a2 2 0 010 3.392L13.06 24.087c-1.332.833-3.06-.125-3.06-1.695V9.607z" stroke="#fff" stroke-width="2" stroke-linecap="round" stroke-linejoin="round"/></svg><svg viewBox="0 0 16 14" id="ic_tg" xmlns="http://www.w3.org/2000/svg"><path d="M6.279 9.096l-.265 3.723c.379 0 .543-.163.74-.358l1.775-1.697 3.679 2.695c.674.376 1.15.178 1.332-.621l2.415-11.316c.214-.997-.36-1.388-1.018-1.143L.743 5.813c-.969.376-.954.916-.165 1.161l3.629 1.129 8.43-5.274c.396-.263.757-.118.46.145L6.279 9.096z"/></svg><svg viewBox="0 0 16 13" id="ic_tw" xmlns="http://www.w3.org/2000/svg"><path d="M16 1.543a6.872 6.872 0 01-1.645 1.696 9.368 9.368 0 01-.376 3.066 9.453 9.453 0 01-1.177 2.517 9.91 9.91 0 01-1.868 2.143c-.724.615-1.597 1.11-2.62 1.482a9.666 9.666 0 01-3.278.548A9.106 9.106 0 010 11.523c.237.027.5.04.792.04a6.42 6.42 0 004.07-1.4 3.214 3.214 0 01-1.908-.65 3.235 3.235 0 01-1.157-1.625c.223.034.43.051.62.051.29 0 .578-.037.862-.112a3.259 3.259 0 01-1.888-1.126A3.201 3.201 0 01.65 4.609v-.04c.46.257.954.395 1.482.416a3.275 3.275 0 01-1.066-1.168A3.195 3.195 0 01.67 2.254c0-.596.149-1.147.447-1.655a9.373 9.373 0 002.985 2.426A9.22 9.22 0 007.878 4.03a3.643 3.643 0 01-.081-.75c0-.908.318-1.68.954-2.316A3.169 3.169 0 0111.076 0c.948 0 1.746.345 2.396 1.036a6.43 6.43 0 002.081-.792 3.184 3.184 0 01-1.441 1.807A6.534 6.534 0 0016 1.543z"/></svg><svg viewBox="0 0 100 100" style="max-width:100%" id="ic_user" xmlns="http://www.w3.org/2000/svg"><path d="M69.2 75.7v9.6H1.3v-9.6c0-2 .9-3.9 2.4-5.2 6.7-5.5 13.8-9.6 17.6-11.6.4 1 4.5 10.5 7 14 0 0 2.5-8.8 6.6-6.4 0 0-8.3-6.4-11-9.6v-6.3c-1-1.8-1.7-3.6-1.9-5.3-.7-.1-1.7-1.1-2.8-4.8-1.3-4.7-.1-5.7 1.1-5.7l-.3-1.2c-.5-2.4-.6-4.6 0-6.7.7-2.8 2.2-5.1 3.9-6.8 1.1-1.1 2.3-2.2 3.6-3 1.1-.7 2.2-1.4 3.5-1.8 1-.3 2.1-.6 3.2-.6 3.5-.3 6.1.6 8 1.7C45 18 46.1 20 46.1 20s6.4.5 4.3 13.5l-.3 1.2c1.2 0 2.5 1 1.1 5.7-1 3.7-2 4.7-2.8 4.8-.3 1.7-.9 3.5-1.9 5.3v6.3c-2.7 3.2-11 9.6-11 9.6 4.1-2.3 6.6 6.4 6.6 6.4 2.5-3.5 6.6-13 7-14 3.7 2 10.9 6.1 17.6 11.6 1.6 1.4 2.5 3.3 2.5 5.3zm29.5-45.6c0 8-6.4 14.4-14.4 14.4h-9.8l-6.6 6.6c-.4.4-1.2.1-1.2-.5v-6.9c-5.7-1.9-9.9-7.3-9.9-13.7 0-8 6.4-14.4 14.4-14.4h13.1c7.9.1 14.4 6.6 14.4 14.5zm-19.4 6.7c0-.5-.4-.9-.9-.9h-2.3c-.5 0-.9.4-.9.9v1.5c0 .5.4.9.9.9h2.3c.5 0 .9-.4.9-.9v-1.5zm4.6-10.3c0-1.7-.6-3-1.7-4S79.5 21 77.6 21c-1.8 0-3.3.4-4.4 1.3-1 .8-1.5 1.8-1.6 3.3 0 .3.2.6.6.6h2.7c.4 0 .8-.3.9-.7.1-.3.3-.6.5-.8.4-.3.8-.5 1.4-.5.7 0 1.2.2 1.6.6.4.4.6 1 .6 1.7s-.2 1.3-.5 1.8-.8.9-1.3 1.3c-1.1.8-1.8 1.4-2.2 2-.3.5-.5 1.1-.6 1.9 0 .4.3.7.6.7h2.9c.3 0 .6-.2.6-.6 0-.4.1-.8.3-1.1.2-.4.5-.8 1.1-1.1.9-.5 1.7-1.2 2.3-2 .5-1 .8-1.9.8-2.9z" fill="currentColor"/></svg><svg viewBox="0 0 20 20" id="ic_vb" xmlns="http://www.w3.org/2000/svg"><path d="M17.745 1.948c-.524-.457-2.64-1.914-7.36-1.934 0 0-5.565-.316-8.276 2.043C.602 3.487.07 5.584.013 8.18c-.058 2.597-.128 7.464 4.819 8.784h.004l-.004 2.015s-.033.817.535.98c.684.204 1.088-.417 1.743-1.085.358-.367.852-.906 1.227-1.316 3.386.27 5.985-.348 6.281-.438.684-.21 4.552-.68 5.178-5.546.65-5.023-.313-8.194-2.051-9.627zm.572 9.26c-.531 4.062-3.666 4.32-4.242 4.496-.247.074-2.534.613-5.404.437 0 0-2.142 2.449-2.81 3.086-.218.207-.457.187-.452-.223 0-.27.016-3.347.016-3.347-.004 0-.004 0 0 0-4.193-1.102-3.946-5.246-3.9-7.413.045-2.168.477-3.945 1.754-5.14 2.294-1.973 7.019-1.68 7.019-1.68 3.99.016 5.902 1.156 6.347 1.539 1.47 1.195 2.22 4.054 1.672 8.245zm-5.725-3.156c.016.336-.515.36-.532.024-.045-.86-.469-1.278-1.342-1.324-.354-.02-.322-.524.029-.504 1.149.058 1.787.683 1.845 1.804zm.836.442c.041-1.656-1.05-2.953-3.122-3.098-.35-.023-.313-.527.037-.504 2.389.164 3.662 1.723 3.616 3.613-.004.336-.54.32-.531-.011zm1.936.523c.004.336-.532.34-.532.004-.024-3.183-2.26-4.918-4.975-4.937-.35-.004-.35-.504 0-.504 3.036.02 5.478 2.008 5.507 5.437zm-.466 3.832v.007c-.444.742-1.276 1.563-2.133 1.3l-.008-.01c-.87-.231-2.917-1.231-4.21-2.208-.667-.5-1.277-1.09-1.746-1.656a12.643 12.643 0 01-1.269-1.82c-.877-1.503-1.07-2.175-1.07-2.175-.277-.813.584-1.602 1.37-2.023h.009c.379-.188.741-.125.984.152 0 0 .511.578.73.863.205.266.481.691.626.93.25.425.094.859-.153 1.039l-.494.375c-.251.19-.218.546-.218.546s.733 2.629 3.472 3.293c0 0 .375.031.576-.207l.396-.469c.19-.234.646-.383 1.095-.144.606.324 1.376.828 1.887 1.285.288.222.354.562.156.921z"/></svg><svg viewBox="0 0 19 11" id="ic_vk" xmlns="http://www.w3.org/2000/svg"><path d="M17.57 8.059c-.393-.414-.84-.785-1.27-1.143-.154-.128-.313-.26-.466-.39-.438-.377-.454-.519-.107-.947.24-.295.495-.59.742-.876.224-.26.455-.527.677-.796l.045-.055c.424-.515.862-1.047 1.095-1.689.06-.17.124-.418-.021-.627-.145-.208-.427-.272-.627-.301a1.946 1.946 0 00-.287-.017l-2.774-.002h-.023c-.42 0-.702.174-.864.53a13.74 13.74 0 01-.519 1.05c-.385.688-.875 1.48-1.584 2.141l-.03.028c-.084.08-.179.169-.248.169a.133.133 0 01-.035-.006c-.147-.05-.246-.362-.241-.507v-.006L11.03 1.8l-.003-.03c-.07-.457-.226-.742-.817-.843a.278.278 0 00-.048-.004H7.278c-.47 0-.729.168-.972.419-.066.067-.202.206-.135.376.07.172.292.208.365.22.361.06.564.254.622.593.1.588.113 1.216.039 1.975a1.49 1.49 0 01-.129.514c-.015.032-.07.138-.127.138-.018 0-.07-.006-.165-.063-.224-.135-.387-.327-.578-.564A12.863 12.863 0 014.53 1.817a.986.986 0 00-.92-.592c-.46-.006-.878-.01-1.276-.01-.435 0-.839.004-1.232.012-.337.005-.57.093-.693.263s-.115.394.024.664C1.544 4.32 2.55 5.896 3.697 7.261c.804.956 1.61 1.618 2.536 2.082.977.49 2.071.729 3.345.729.145 0 .294-.003.445-.01.74-.031 1.015-.266 1.05-.9.016-.323.057-.662.238-.951.114-.183.22-.183.256-.183.067 0 .151.028.241.079.161.092.3.216.413.324l.317.31c.228.224.464.456.71.675.538.481 1.132.693 1.813.647h2.56a.755.755 0 00.602-.34c.16-.248.157-.564-.008-.847a4.587 4.587 0 00-.645-.817z"/></svg><svg viewBox="0 0 16 17" id="ic_wa" xmlns="http://www.w3.org/2000/svg"><path d="M9.719 9.385c.27-.34.451-.51.541-.51.09 0 .428.153 1.01.458.591.306.904.49.938.552.014.035.021.087.021.157 0 .229-.059.493-.177.791-.111.271-.358.5-.74.688-.381.18-.736.27-1.062.27-.396 0-1.056-.215-1.98-.645a5.945 5.945 0 01-1.77-1.23C6 9.41 5.486 8.768 4.958 7.99c-.5-.743-.746-1.417-.74-2.021v-.084c.022-.632.279-1.18.772-1.645a.788.788 0 01.541-.23c.042 0 .104.007.188.021.083.007.15.01.198.01.132 0 .222.025.27.074.056.041.112.135.167.28.056.14.17.445.344.918.174.472.26.732.26.78 0 .147-.121.348-.364.605-.236.25-.354.41-.354.48 0 .048.017.1.052.155.236.507.59.983 1.062 1.427.39.368.913.72 1.573 1.053.083.048.16.072.23.072.103 0 .29-.166.562-.5zm-1.573 5.01a6.33 6.33 0 002.531-.52 6.581 6.581 0 002.094-1.396 6.613 6.613 0 001.396-2.083c.347-.813.52-1.66.52-2.542a6.33 6.33 0 00-.52-2.531 6.582 6.582 0 00-1.396-2.094 6.581 6.581 0 00-2.094-1.396 6.329 6.329 0 00-2.531-.52c-.882 0-1.73.173-2.542.52-.805.348-1.5.813-2.083 1.396a6.582 6.582 0 00-1.396 2.094 6.329 6.329 0 00-.52 2.531c0 1.41.416 2.688 1.25 3.833l-.824 2.428 2.521-.803a6.406 6.406 0 003.594 1.084zM5.094.626A7.669 7.669 0 018.146 0c1.062 0 2.076.208 3.041.625a7.918 7.918 0 012.51 1.677 7.918 7.918 0 011.678 2.51c.417.966.625 1.98.625 3.042 0 1.063-.208 2.08-.625 3.052a7.947 7.947 0 01-1.677 2.5 7.916 7.916 0 01-2.51 1.677 7.594 7.594 0 01-3.042.625 7.735 7.735 0 01-3.802-.979L0 16.125l1.417-4.219A7.666 7.666 0 01.292 7.854c0-1.062.208-2.076.625-3.042a7.917 7.917 0 011.677-2.51 7.948 7.948 0 012.5-1.677z"/></svg></svg>